# xmcd
#
# Track frame offsets:
#	150
#	8839
#	25218
#	35313
#	46310
#	57127
#	66737
#	79682
#	89830
#	99595
#	114891
#	128554
#	140068
#	154405
#	165629
#	180289
#	192852
#	202339
#	212145
#	225647
#
# Disc length: 3198 seconds
#
# Revision: 2
# Processed by: cddbd v1.5.2PL0 Copyright (c) Steve Scherf et al.
# Submitted via: EasyCDDAExtractor 10.0.5.1
#
DISCID=170c7c14
DTITLE=Various Artist - Country Greats - Disc 6
DYEAR=1900
DGENRE=Country
TTITLE0=Roger Miller - England Swings
TTITLE1=Joe South - Walk A Mile In My Shoes
TTITLE2=Faron Young - Hello Walls
TTITLE3=Guy Mitchell - Singing The Blues
TTITLE4=Johnny Chester - The World's Greatest Mum
TTITLE5=Johnny Cash - Ballad Of A Tennage Queen
TTITLE6=Leroy Van Dyke - The Auctioneer
TTITLE7=Glenn Yarborough - Baby, The Rain Must Fall
TTITLE8=Hank Locklin - Please Help Me I'm Falling
TTITLE9=Melba Montgomery - No Charge
TTITLE10=Frankie Laine - Riders In The Sky
TTITLE11=Don Williams - Storybook Children
TTITLE12=Lee Conway - I Recall A Gypsy Woman
TTITLE13=Wynn Stewart - It's Such A Pretty World Today
TTITLE14=Kenny Rogers - Tell It All, Brother
TTITLE15=Hans Poulsen - There's A Light Across The Valley
TTITLE16=Patsy Cline - I'm Moving On
TTITLE17=Willie Nelson - I Didn't Sleep A Wink
TTITLE18=Johnny Russell - Catfish John
TTITLE19=Lacy J Dalton - 16th Avenue
EXTD=
EXTT0=
EXTT1=
EXTT2=
EXTT3=
EXTT4=
EXTT5=
EXTT6=
EXTT7=
EXTT8=
EXTT9=
EXTT10=
EXTT11=
EXTT12=
EXTT13=
EXTT14=
EXTT15=
EXTT16=
EXTT17=
EXTT18=
EXTT19=
PLAYORDER=
